<?xml version="1.0" encoding="UTF-8" standalone="no"?>
<!-- Created with Inkscape (http://www.inkscape.org/) -->

<svg
   xmlns:dc="http://purl.org/dc/elements/1.1/"
   xmlns:cc="http://creativecommons.org/ns#"
   xmlns:rdf="http://www.w3.org/1999/02/22-rdf-syntax-ns#"
   xmlns:svg="http://www.w3.org/2000/svg"
   xmlns="http://www.w3.org/2000/svg"
   xmlns:sodipodi="http://sodipodi.sourceforge.net/DTD/sodipodi-0.dtd"
   xmlns:inkscape="http://www.inkscape.org/namespaces/inkscape"
   width="132.5"
   height="102.5"
   id="svg6043"
   version="1.1"
   inkscape:version="0.48.4 r9939"
   sodipodi:docname="New document 6">
  <defs
     id="defs6045">
    <clipPath
       clipPathUnits="userSpaceOnUse"
       id="clipPath1428">
      <path
         inkscape:connector-curvature="0"
         d="m 0,1720 880,0 L 880,0 0,0 0,1720 z"
         id="path1430" />
    </clipPath>
    <clipPath
       clipPathUnits="userSpaceOnUse"
       id="clipPath1444">
      <path
         inkscape:connector-curvature="0"
         d="m 559,972.5 98,0 0,-65.5 -98,0 0,65.5 z"
         id="path1446" />
    </clipPath>
  </defs>
  <sodipodi:namedview
     id="base"
     pagecolor="#ffffff"
     bordercolor="#666666"
     borderopacity="1.0"
     inkscape:pageopacity="0.0"
     inkscape:pageshadow="2"
     inkscape:zoom="0.35"
     inkscape:cx="135.53571"
     inkscape:cy="-65.892883"
     inkscape:document-units="px"
     inkscape:current-layer="layer1"
     showgrid="false"
     fit-margin-top="0"
     fit-margin-left="0"
     fit-margin-right="0"
     fit-margin-bottom="0"
     inkscape:window-width="1600"
     inkscape:window-height="876"
     inkscape:window-x="1920"
     inkscape:window-y="0"
     inkscape:window-maximized="1" />
  <metadata
     id="metadata6048">
    <rdf:RDF>
      <cc:Work
         rdf:about="">
        <dc:format>image/svg+xml</dc:format>
        <dc:type
           rdf:resource="http://purl.org/dc/dcmitype/StillImage" />
        <dc:title></dc:title>
      </cc:Work>
    </rdf:RDF>
  </metadata>
  <g
     inkscape:label="Layer 1"
     inkscape:groupmode="layer"
     id="layer1"
     transform="translate(-239.46429,-363.9693)">
    <g
       id="g1420"
       transform="matrix(1.25,0,0,-1.25,354.46429,366.4692)">
      <path
         inkscape:connector-curvature="0"
         d="m 0,0 -54,-54 -24,24 -12,-12 36,-36 66,66 L 0,0 z"
         style="fill:#43d490;fill-opacity:1;fill-rule:nonzero;stroke:none"
         id="path1422" />
    </g>
    <g
       transform="matrix(1.25,0,0,-1.25,-454.28571,1595.2193)"
       id="g1424">
      <g
         id="g1426"
         clip-path="url(#clipPath1428)">
        <g
           id="g1432"
           transform="translate(647,983.0001)">
          <path
             inkscape:connector-curvature="0"
             d="M 0,0 -9.576,-9.576 C -11.758,-13.562 -13,-18.136 -13,-23 c 0,-4.108 0.892,-8.005 2.481,-11.519 L 12,-12 0,0 z"
             style="fill:#485761;fill-opacity:1;fill-rule:nonzero;stroke:none"
             id="path1434" />
        </g>
        <g
           id="g1436"
           transform="translate(648.0587,981.9414)">
          <path
             inkscape:connector-curvature="0"
             d="m 0,0 -1.059,1.059 -9.576,-9.576 c -2.181,-3.986 -3.424,-8.56 -3.424,-13.424 0,-4.108 0.892,-8.005 2.481,-11.52 l 1.516,1.517 c -1.285,3.079 -1.997,6.457 -1.997,10.003 0,9.228 4.812,17.327 12.059,21.941"
             style="fill:#171c1f;fill-opacity:1;fill-rule:nonzero;stroke:none"
             id="path1438" />
        </g>
        <g
           id="g1440">
          <g
             id="g1442" />
          <g
             id="g1448">
            <g
               style="opacity:0.10195899"
               clip-path="url(#clipPath1444)"
               id="g1450">
              <g
                 transform="translate(655.4999,972.5)"
                 id="g1452">
                <path
                   inkscape:connector-curvature="0"
                   d="M 0,0 -62.5,-62.5 -95,-30 l -1.5,-1.5 34,-34 64,64 L 0,0 z"
                   style="fill:#000000;fill-opacity:1;fill-rule:nonzero;stroke:none"
                   id="path1454" />
              </g>
            </g>
          </g>
        </g>
        <g
           id="g1456"
           transform="translate(593,907)">
          <path
             inkscape:connector-curvature="0"
             d="M 0,0 -34,34 -24,44 -2.828,22.828 0,20 2.828,22.828 53.995,74 c 0,0 0.002,0 0.005,0 L 54,74 64,64 0,0 z m 66.828,66.828 -10,10 C 56.105,77.552 55.105,78 54,78 52.895,78 51.895,77.552 51.172,76.828 L 0,25.657 -21.172,46.828 C -21.895,47.552 -22.895,48 -24,48 c -1.105,0 -2.105,-0.448 -2.828,-1.172 l -10,-10 C -37.552,36.105 -38,35.105 -38,34 c 0,-1.105 0.448,-2.105 1.172,-2.828 l 34,-34 C -2.105,-3.552 -1.105,-4 0,-4 c 1.105,0 2.105,0.448 2.828,1.172 l 64,64 C 67.552,61.895 68,62.895 68,64 c 0,1.105 -0.448,2.105 -1.172,2.828"
             style="fill:#171c1f;fill-opacity:1;fill-rule:nonzero;stroke:none"
             id="path1458" />
        </g>
      </g>
    </g>
  </g>
</svg>
