<?xml version="1.0" encoding="UTF-8" standalone="no"?>
<!-- Created with Inkscape (http://www.inkscape.org/) -->

<svg
   xmlns:dc="http://purl.org/dc/elements/1.1/"
   xmlns:cc="http://creativecommons.org/ns#"
   xmlns:rdf="http://www.w3.org/1999/02/22-rdf-syntax-ns#"
   xmlns:svg="http://www.w3.org/2000/svg"
   xmlns="http://www.w3.org/2000/svg"
   xmlns:sodipodi="http://sodipodi.sourceforge.net/DTD/sodipodi-0.dtd"
   xmlns:inkscape="http://www.inkscape.org/namespaces/inkscape"
   width="89.232552"
   height="102.81142"
   id="svg5929"
   version="1.1"
   inkscape:version="0.48.4 r9939"
   sodipodi:docname="trash.svg">
  <defs
     id="defs5931">
    <clipPath
       clipPathUnits="userSpaceOnUse"
       id="clipPath2870">
      <path
         inkscape:connector-curvature="0"
         d="m 0,1720 880,0 L 880,0 0,0 0,1720 z"
         id="path2872" />
    </clipPath>
    <clipPath
       clipPathUnits="userSpaceOnUse"
       id="clipPath2886">
      <path
         inkscape:connector-curvature="0"
         d="m 751,119 50,0 0,-56 -50,0 0,56 z"
         id="path2888" />
    </clipPath>
    <clipPath
       clipPathUnits="userSpaceOnUse"
       id="clipPath2902">
      <path
         inkscape:connector-curvature="0"
         d="m 734,141 84,0 0,-85.9999 -84,0 0,85.9999 z"
         id="path2904" />
    </clipPath>
  </defs>
  <sodipodi:namedview
     id="base"
     pagecolor="#ffffff"
     bordercolor="#666666"
     borderopacity="1.0"
     inkscape:pageopacity="0.0"
     inkscape:pageshadow="2"
     inkscape:zoom="1.4"
     inkscape:cx="-140.30842"
     inkscape:cy="-21.964991"
     inkscape:document-units="px"
     inkscape:current-layer="layer1"
     showgrid="false"
     inkscape:window-width="1600"
     inkscape:window-height="876"
     inkscape:window-x="1920"
     inkscape:window-y="0"
     inkscape:window-maximized="1"
     fit-margin-top="0"
     fit-margin-left="0"
     fit-margin-right="0"
     fit-margin-bottom="0" />
  <metadata
     id="metadata5934">
    <rdf:RDF>
      <cc:Work
         rdf:about="">
        <dc:format>image/svg+xml</dc:format>
        <dc:type
           rdf:resource="http://purl.org/dc/dcmitype/StillImage" />
        <dc:title></dc:title>
      </cc:Work>
    </rdf:RDF>
  </metadata>
  <g
     inkscape:label="Layer 1"
     inkscape:groupmode="layer"
     id="layer1"
     transform="translate(-43.955147,-29.527908)">
    <g
       id="g2866"
       transform="matrix(0.96991901,0,0,-0.96991901,-664.08573,181.80529)">
      <g
         id="g2868"
         clip-path="url(#clipPath2870)">
        <g
           id="g2874"
           transform="translate(741,129)">
          <path
             d="m 0,0 5,-68 c 0,-4.418 3.582,-8 8,-8 l 44,0 c 4.418,0 8,3.582 8,8 L 70,0 0,0 z"
             style="fill:#485761;fill-opacity:1;fill-rule:nonzero;stroke:none"
             id="path2876"
             inkscape:connector-curvature="0" />
        </g>
        <g
           id="g2878"
           transform="translate(816,137.0001)">
          <path
             d="m 0,0 -80,0 c -2.209,0 -4,-1.791 -4,-4 0,-2.209 1.791,-4 4,-4 l 80,0 c 2.209,0 4,1.791 4,4 0,2.209 -1.791,4 -4,4 m -50,10 20,0 0,-8 8,0 0,10 c 0,3.314 -2.686,6 -6,6 l -24,0 c -3.314,0 -6,-2.686 -6,-6 l 0,-10 8,0 0,8 z"
             style="fill:#ffc868;fill-opacity:1;fill-rule:nonzero;stroke:none"
             id="path2880"
             inkscape:connector-curvature="0" />
        </g>
        <g
           id="g2882">
          <g
             id="g2884" />
          <g
             id="g2890">
            <g
               clip-path="url(#clipPath2886)"
               id="g2892"
               style="opacity:0.25097704">
              <g
                 transform="translate(788,119)"
                 id="g2894">
                <path
                   d="m 0,0 c -0.552,0 -1,-0.448 -1,-1 l -2,-54 c 0,-0.552 0.448,-1 1,-1 0.552,0 1,0.448 1,1 L 1,-1 C 1,-0.448 0.552,0 0,0 M 12,0 C 11.448,0 11,-0.448 11,-1 L 7,-55 c 0,-0.552 0.448,-1 1,-1 0.552,0 1,0.448 1,1 l 4,54 c 0,0.552 -0.448,1 -1,1 m -24,0 c -0.552,0 -1,-0.448 -1,-1 l 0,-54 c 0,-0.552 0.448,-1 1,-1 0.552,0 1,0.448 1,1 l 0,54 c 0,0.552 -0.448,1 -1,1 m -24,0 c -0.552,0 -1,-0.448 -1,-1 l 4,-54 c 0,-0.552 0.448,-1 1,-1 0.552,0 1,0.448 1,1 l -4,54 c 0,0.552 -0.448,1 -1,1 m 12,0 c -0.552,0 -1,-0.448 -1,-1 l 2,-54 c 0,-0.552 0.448,-1 1,-1 0.552,0 1,0.448 1,1 l -2,54 c 0,0.552 -0.448,1 -1,1"
                   style="fill:#171c1f;fill-opacity:1;fill-rule:nonzero;stroke:none"
                   id="path2896"
                   inkscape:connector-curvature="0" />
              </g>
            </g>
          </g>
        </g>
        <g
           id="g2898">
          <g
             id="g2900" />
          <g
             id="g2906">
            <g
               clip-path="url(#clipPath2902)"
               id="g2908"
               style="opacity:0.10195899">
              <g
                 transform="translate(817.7302,134)"
                 id="g2910">
                <path
                   d="m 0,0 c -0.346,-0.597 -0.99,-1 -1.73,-1 l -80,0 c -0.74,0 -1.385,0.403 -1.731,1 -0.17,-0.294 -0.269,-0.635 -0.269,-1 0,-1.105 0.895,-2 2,-2 l 80,0 c 1.104,0 2,0.895 2,2 0,0.365 -0.099,0.706 -0.27,1 m -75.73,-9 68,0 0,2 -68,0 0,-2 z m 58,-68 -48,0 c -2.079,0 -3.827,1.624 -3.981,3.698 l -0.251,1.302 0.251,-3.302 c 0.154,-2.074 1.902,-3.698 3.981,-3.698 l 48,0 c 2.078,0 3.827,1.624 3.98,3.698 l 0.245,3.302 -0.245,-1.302 C -13.903,-75.376 -15.652,-77 -17.73,-77 m -36,84 -4,0 0,-2 4,0 0,2 z m 28,0 -4,0 0,-2 4,0 0,2 z"
                   style="fill:#171c1f;fill-opacity:1;fill-rule:nonzero;stroke:none"
                   id="path2912"
                   inkscape:connector-curvature="0" />
              </g>
            </g>
          </g>
        </g>
        <g
           id="g2914"
           transform="translate(816,131.0001)">
          <path
             d="m 0,0 -80,0 c -1.105,0 -2,0.895 -2,2 0,1.104 0.895,2 2,2 L 0,4 C 1.105,4 2,3.104 2,2 2,0.895 1.105,0 0,0 m -11.711,-68.295 -0.011,0.001 -0.297,-4.008 C -12.173,-74.376 -13.922,-76 -16,-76 l -48,0 c -2.078,0 -3.827,1.624 -3.981,3.698 l -0.305,4.007 -0.003,-0.001 -4.825,64.296 66.228,0 -4.825,-64.295 z M -32,8 l -16,0 0,6 16,0 0,-6 z m -24,10 c 0,2.209 1.791,4 4,4 l 24,0 c 2.209,0 4,-1.791 4,-4 l 0,-10 -4,0 0,10 -24,0 0,-10 -4,0 0,10 z M 0,8 l -20,0 0,10 c 0,4.418 -3.582,8 -8,8 l -24,0 c -4.418,0 -8,-3.582 -8,-8 l 0,-10 -20,0 c -3.314,0 -6,-2.686 -6,-6 0,-3.314 2.686,-6 6,-6 l 2.876,0 5.146,-68.598 0.008,0 C -71.663,-76.736 -68.216,-80 -64,-80 l 48,0 c 4.216,0 7.663,3.264 7.97,7.402 l 0.008,0 L -2.876,-4 0,-4 c 3.314,0 6,2.686 6,6 0,3.314 -2.686,6 -6,6"
             style="fill:#171c1f;fill-opacity:1;fill-rule:nonzero;stroke:none"
             id="path2916"
             inkscape:connector-curvature="0" />
        </g>
      </g>
    </g>
  </g>
</svg>
