<?xml version="1.0" encoding="UTF-8" standalone="no"?>
<!-- Created with Inkscape (http://www.inkscape.org/) -->

<svg
   xmlns:dc="http://purl.org/dc/elements/1.1/"
   xmlns:cc="http://creativecommons.org/ns#"
   xmlns:rdf="http://www.w3.org/1999/02/22-rdf-syntax-ns#"
   xmlns:svg="http://www.w3.org/2000/svg"
   xmlns="http://www.w3.org/2000/svg"
   xmlns:sodipodi="http://sodipodi.sourceforge.net/DTD/sodipodi-0.dtd"
   xmlns:inkscape="http://www.inkscape.org/namespaces/inkscape"
   width="55"
   height="55"
   id="svg4781"
   version="1.1"
   inkscape:version="0.48.4 r9939"
   sodipodi:docname="New document 5">
  <defs
     id="defs4783" />
  <sodipodi:namedview
     id="base"
     pagecolor="#ffffff"
     bordercolor="#666666"
     borderopacity="1.0"
     inkscape:pageopacity="0.0"
     inkscape:pageshadow="2"
     inkscape:zoom="0.35"
     inkscape:cx="31.07168"
     inkscape:cy="73.214285"
     inkscape:document-units="px"
     inkscape:current-layer="layer1"
     showgrid="false"
     fit-margin-top="0"
     fit-margin-left="0"
     fit-margin-right="0"
     fit-margin-bottom="0"
     inkscape:window-width="611"
     inkscape:window-height="418"
     inkscape:window-x="2413"
     inkscape:window-y="228"
     inkscape:window-maximized="0" />
  <metadata
     id="metadata4786">
    <rdf:RDF>
      <cc:Work
         rdf:about="">
        <dc:format>image/svg+xml</dc:format>
        <dc:type
           rdf:resource="http://purl.org/dc/dcmitype/StillImage" />
        <dc:title></dc:title>
      </cc:Work>
    </rdf:RDF>
  </metadata>
  <g
     inkscape:label="Layer 1"
     inkscape:groupmode="layer"
     id="layer1"
     transform="translate(-343.92832,-93.433611)">
    <path
       inkscape:connector-curvature="0"
       d="m 381.42232,112.17236 -2.50125,0 0,3.7525 -3.76125,0 0,2.5025 3.76125,0 0,3.73625 2.50125,0 0,-3.73625 3.7675,0 0,-2.5025 -3.7675,0 0,-3.7525 z m -13.76,16.77125 c -1.785,0 -3.18375,-1.14875 -3.18375,-2.61375 0,-1.34375 1.63625,-2.5225 3.5025,-2.5225 l 0,-0.5225 0.001,0 0.0475,0.5225 c 0.40375,0.004 0.79375,0.065 1.16375,0.1825 l 0.36875,0.265 c 0.94875,0.6775 1.45,1.06125 1.6,1.67875 0.0375,0.16125 0.055,0.325 0.055,0.485 0,1.675 -1.19625,2.525 -3.555,2.525 m -1.9838,-13.25875 c -0.12,-0.95875 0.0813,-1.84625 0.54125,-2.37625 0.28,-0.32125 0.64,-0.49125 1.0425,-0.49125 l 0,-0.51875 0,0 0.0462,0.52 c 1.2,0.0375 2.35125,1.45625 2.565,3.1625 0.1225,0.97625 -0.0875,1.885 -0.55875,2.42875 -0.28,0.32125 -0.6325,0.49125 -1.07,0.49 l -10e-4,0 c -1.17625,-0.035 -2.35125,-1.50875 -2.565,-3.215 m 5.8475,6.25625 c -0.64125,-0.475 -1.24,-1.18125 -1.2625,-1.4 0,-0.37375 0,-0.54625 0.88125,-1.26875 1.145,-0.9375 1.77625,-2.17125 1.77625,-3.47375 0,-1.12375 -0.315,-2.13125 -0.85625,-2.8625 l 0.47875,0 2.64375,-2.00125 -7.1625,0 c -2.87375,0 -5.3925,2.255 -5.3925,4.8275 0,2.65625 1.945,4.675 4.56125,4.78375 -0.04,0.18875 -0.0613,0.375 -0.0613,0.55875 0,0.38375 0.0875,0.75 0.2625,1.1025 -3.2425,0.0225 -5.97375,2.19 -5.97375,4.75375 0,2.30125 2.63,3.97125 6.25125,3.97125 3.9125,0 6.02375,-2.4475 6.02375,-4.7525 0,-1.91625 -0.58875,-3.06625 -2.17,-4.23875 m -0.0976,23.9925 c -13.80625,0 -25,-11.1925 -25,-25 0,-13.80625 11.19375,-24.999999 25,-24.999999 13.8075,0 25,11.193749 25,24.999999 0,13.8075 -11.1925,25 -25,25 m 0,-52.499999 c -15.1875,0 -27.5,12.311249 -27.5,27.499999 0,15.1875 12.3125,27.5 27.5,27.5 15.18875,0 27.5,-12.3125 27.5,-27.5 0,-15.18875 -12.31125,-27.499999 -27.5,-27.499999"
       style="fill:#0b80e0;fill-opacity:1;fill-rule:nonzero;stroke:none"
       id="path4010" />
  </g>
</svg>
